<svg xmlns="http://www.w3.org/2000/svg" width="340" height="410" viewBox="0 0 340 410" role="img" aria-labelledby="title desc">
<title id="title">Surface of genus 0, with 0 boundary components and 0 punctures</title>
<desc id="desc">APS standard surface layout. Symmetric genus-zero surface; 0 boundary circles above and 0 punctures below. Marked points are omitted. Dashed segments lie on the hidden sheet. The alpha and beta curves form a symplectic basis after capping boundaries and filling punctures.</desc>
<style>.body{fill:url(#surface-fill);stroke:#9bc7ac;stroke-width:1.3}.opening{fill:#1d2521;stroke:#9bc7ac;stroke-width:1.3}.curve{fill:none;stroke:#9bc7ac;stroke-width:1.6}.alpha{stroke:#d0ead8}.beta{stroke:#80cdbd}.hidden{stroke-dasharray:4 4;opacity:.7}.label{font:italic 19px Georgia,serif;fill:#e4e9e1}.alpha-label{fill:#d0ead8}.beta-label{fill:#80cdbd}.arrow{fill:#9bc7ac}.arrow-alpha{fill:#d0ead8}.arrow-beta{fill:#80cdbd}</style>
<defs><linearGradient id="surface-fill" x2="0" y2="1"><stop stop-color="#456951"/><stop offset="1" stop-color="#283d30"/></linearGradient><marker id="arrow" viewBox="0 0 8 8" refX="6" refY="4" markerWidth="5" markerHeight="5" orient="auto"><path class="arrow" d="M 1 1 L 7 4 L 1 7 L 3 4 Z"/></marker><marker id="arrow-alpha" viewBox="0 0 8 8" refX="6" refY="4" markerWidth="5" markerHeight="5" orient="auto"><path class="arrow-alpha" d="M 1 1 L 7 4 L 1 7 L 3 4 Z"/></marker><marker id="arrow-beta" viewBox="0 0 8 8" refX="6" refY="4" markerWidth="5" markerHeight="5" orient="auto"><path class="arrow-beta" d="M 1 1 L 7 4 L 1 7 L 3 4 Z"/></marker></defs>
<rect width="340" height="410" fill="#1d2521"/>
<path d="M 90 200 L 250 200 C 277.614 200 300 217.909 300 240 C 300 262.091 277.614 280 250 280 L 90 280 C 62.386 280 40 262.091 40 240 C 40 217.909 62.386 200 90 200 Z" class="body"/>
</svg>