<svg xmlns="http://www.w3.org/2000/svg" width="1080" height="410" viewBox="0 0 1080 410" role="img" aria-labelledby="title desc">
<title id="title">Surface of genus 0, with 6 boundary components and 3 punctures</title>
<desc id="desc">APS standard surface layout. Symmetric genus-zero surface; 6 boundary circles above and 3 punctures below. Marked points are omitted. Dashed segments lie on the hidden sheet. The alpha and beta curves form a symplectic basis after capping boundaries and filling punctures.</desc>
<style>.body{fill:url(#surface-fill);stroke:#9bc7ac;stroke-width:1.3}.opening{fill:#1d2521;stroke:#9bc7ac;stroke-width:1.3}.curve{fill:none;stroke:#9bc7ac;stroke-width:1.6}.alpha{stroke:#d0ead8}.beta{stroke:#80cdbd}.hidden{stroke-dasharray:4 4;opacity:.7}.label{font:italic 19px Georgia,serif;fill:#e4e9e1}.alpha-label{fill:#d0ead8}.beta-label{fill:#80cdbd}.arrow{fill:#9bc7ac}.arrow-alpha{fill:#d0ead8}.arrow-beta{fill:#80cdbd}</style>
<defs><linearGradient id="surface-fill" x2="0" y2="1"><stop stop-color="#456951"/><stop offset="1" stop-color="#283d30"/></linearGradient><marker id="arrow" viewBox="0 0 8 8" refX="6" refY="4" markerWidth="5" markerHeight="5" orient="auto"><path class="arrow" d="M 1 1 L 7 4 L 1 7 L 3 4 Z"/></marker><marker id="arrow-alpha" viewBox="0 0 8 8" refX="6" refY="4" markerWidth="5" markerHeight="5" orient="auto"><path class="arrow-alpha" d="M 1 1 L 7 4 L 1 7 L 3 4 Z"/></marker><marker id="arrow-beta" viewBox="0 0 8 8" refX="6" refY="4" markerWidth="5" markerHeight="5" orient="auto"><path class="arrow-beta" d="M 1 1 L 7 4 L 1 7 L 3 4 Z"/></marker></defs>
<rect width="1080" height="410" fill="#1d2521"/>
<path d="M 90 200 L 163.57142857142858 200 C 188.57142857142858 200 188.57142857142858 140 188.57142857142858 85 L 248.57142857142858 85 C 248.57142857142858 140 248.57142857142858 200 273.57142857142856 200 L 292.14285714285717 200 C 317.14285714285717 200 317.14285714285717 140 317.14285714285717 85 L 377.14285714285717 85 C 377.14285714285717 140 377.14285714285717 200 402.14285714285717 200 L 420.7142857142857 200 C 445.7142857142857 200 445.7142857142857 140 445.7142857142857 85 L 505.7142857142857 85 C 505.7142857142857 140 505.7142857142857 200 530.7142857142858 200 L 549.2857142857143 200 C 574.2857142857143 200 574.2857142857143 140 574.2857142857143 85 L 634.2857142857143 85 C 634.2857142857143 140 634.2857142857143 200 659.2857142857143 200 L 677.8571428571429 200 C 702.8571428571429 200 702.8571428571429 140 702.8571428571429 85 L 762.8571428571429 85 C 762.8571428571429 140 762.8571428571429 200 787.8571428571429 200 L 806.4285714285714 200 C 831.4285714285714 200 831.4285714285714 140 831.4285714285714 85 L 891.4285714285714 85 C 891.4285714285714 140 891.4285714285714 200 916.4285714285714 200 L 990 200 C 1017.614 200 1040 217.909 1040 240 C 1040 262.091 1017.614 280 990 280 L 820 280 C 775 280 769 320 768 354 Q 765 360 762 354 C 761 320 755 280 710 280 L 595 280 C 550 280 544 320 543 354 Q 540 360 537 354 C 536 320 530 280 485 280 L 370 280 C 325 280 319 320 318 354 Q 315 360 312 354 C 311 320 305 280 260 280 L 90 280 C 62.386 280 40 262.091 40 240 C 40 217.909 62.386 200 90 200 Z" class="body"/>
<g data-boundary="1"><ellipse class="opening" cx="218.57142857142858" cy="85" rx="30" ry="10"/><ellipse class="curve hidden" cx="218.57142857142858" cy="115" rx="33" ry="11"/><path class="curve" d="M 185.57142857142858 115 A 33 11 0 0 0 251.57142857142858 115"/><path class="curve" d="M 223.57142857142858 126 L 213.57142857142858 126" marker-end="url(#arrow)"/>
<text x="196.57142857142858" y="65" class="label ">∂<tspan baseline-shift="sub" font-size="12">1</tspan></text>
<text x="210.57142857142858" y="150" class="label ">c<tspan baseline-shift="sub" font-size="12">1</tspan></text>
</g>
<g data-boundary="2"><ellipse class="opening" cx="347.14285714285717" cy="85" rx="30" ry="10"/><ellipse class="curve hidden" cx="347.14285714285717" cy="115" rx="33" ry="11"/><path class="curve" d="M 314.14285714285717 115 A 33 11 0 0 0 380.14285714285717 115"/><path class="curve" d="M 352.14285714285717 126 L 342.14285714285717 126" marker-end="url(#arrow)"/>
<text x="325.14285714285717" y="65" class="label ">∂<tspan baseline-shift="sub" font-size="12">2</tspan></text>
<text x="339.14285714285717" y="150" class="label ">c<tspan baseline-shift="sub" font-size="12">2</tspan></text>
</g>
<g data-boundary="3"><ellipse class="opening" cx="475.7142857142857" cy="85" rx="30" ry="10"/><ellipse class="curve hidden" cx="475.7142857142857" cy="115" rx="33" ry="11"/><path class="curve" d="M 442.7142857142857 115 A 33 11 0 0 0 508.7142857142857 115"/><path class="curve" d="M 480.7142857142857 126 L 470.7142857142857 126" marker-end="url(#arrow)"/>
<text x="453.7142857142857" y="65" class="label ">∂<tspan baseline-shift="sub" font-size="12">3</tspan></text>
<text x="467.7142857142857" y="150" class="label ">c<tspan baseline-shift="sub" font-size="12">3</tspan></text>
</g>
<g data-boundary="4"><ellipse class="opening" cx="604.2857142857143" cy="85" rx="30" ry="10"/><ellipse class="curve hidden" cx="604.2857142857143" cy="115" rx="33" ry="11"/><path class="curve" d="M 571.2857142857143 115 A 33 11 0 0 0 637.2857142857143 115"/><path class="curve" d="M 609.2857142857143 126 L 599.2857142857143 126" marker-end="url(#arrow)"/>
<text x="582.2857142857143" y="65" class="label ">∂<tspan baseline-shift="sub" font-size="12">4</tspan></text>
<text x="596.2857142857143" y="150" class="label ">c<tspan baseline-shift="sub" font-size="12">4</tspan></text>
</g>
<g data-boundary="5"><ellipse class="opening" cx="732.8571428571429" cy="85" rx="30" ry="10"/><ellipse class="curve hidden" cx="732.8571428571429" cy="115" rx="33" ry="11"/><path class="curve" d="M 699.8571428571429 115 A 33 11 0 0 0 765.8571428571429 115"/><path class="curve" d="M 737.8571428571429 126 L 727.8571428571429 126" marker-end="url(#arrow)"/>
<text x="710.8571428571429" y="65" class="label ">∂<tspan baseline-shift="sub" font-size="12">5</tspan></text>
<text x="724.8571428571429" y="150" class="label ">c<tspan baseline-shift="sub" font-size="12">5</tspan></text>
</g>
<g data-boundary="6"><ellipse class="opening" cx="861.4285714285714" cy="85" rx="30" ry="10"/><ellipse class="curve hidden" cx="861.4285714285714" cy="115" rx="33" ry="11"/><path class="curve" d="M 828.4285714285714 115 A 33 11 0 0 0 894.4285714285714 115"/><path class="curve" d="M 866.4285714285714 126 L 856.4285714285714 126" marker-end="url(#arrow)"/>
<text x="839.4285714285714" y="65" class="label ">∂<tspan baseline-shift="sub" font-size="12">6</tspan></text>
<text x="853.4285714285714" y="150" class="label ">c<tspan baseline-shift="sub" font-size="12">6</tspan></text>
</g>
<g data-puncture="1"><circle class="opening" cx="315" cy="355" r="3"/><ellipse class="curve hidden" cx="315" cy="307" rx="15" ry="6"/><path class="curve" d="M 300 307 A 15 6 0 0 0 330 307"/><path class="curve" d="M 319 313 L 311 313" marker-end="url(#arrow)"/>
<text x="335" y="316" class="label ">c<tspan baseline-shift="sub" font-size="12">7</tspan></text>
</g>
<g data-puncture="2"><circle class="opening" cx="540" cy="355" r="3"/><ellipse class="curve hidden" cx="540" cy="307" rx="15" ry="6"/><path class="curve" d="M 525 307 A 15 6 0 0 0 555 307"/><path class="curve" d="M 544 313 L 536 313" marker-end="url(#arrow)"/>
<text x="560" y="316" class="label ">c<tspan baseline-shift="sub" font-size="12">8</tspan></text>
</g>
<g data-puncture="3"><circle class="opening" cx="765" cy="355" r="3"/><ellipse class="curve hidden" cx="765" cy="307" rx="15" ry="6"/><path class="curve" d="M 750 307 A 15 6 0 0 0 780 307"/><path class="curve" d="M 769 313 L 761 313" marker-end="url(#arrow)"/>
<text x="785" y="316" class="label ">c<tspan baseline-shift="sub" font-size="12">9</tspan></text>
</g>
</svg>