<svg xmlns="http://www.w3.org/2000/svg" width="1380" height="410" viewBox="0 0 1380 410" role="img" aria-labelledby="title desc">
<title id="title">Surface of genus 0, with 8 boundary components and 4 punctures</title>
<desc id="desc">APS standard surface layout. Symmetric genus-zero surface; 8 boundary circles above and 4 punctures below. Marked points are omitted. Dashed segments lie on the hidden sheet. The alpha and beta curves form a symplectic basis after capping boundaries and filling punctures.</desc>
<style>.body{fill:url(#surface-fill);stroke:#2b6555;stroke-width:1.3}.opening{fill:#ffffff;stroke:#2b6555;stroke-width:1.3}.curve{fill:none;stroke:#2b6555;stroke-width:1.6}.alpha{stroke:#20563f}.beta{stroke:#397d77}.hidden{stroke-dasharray:4 4;opacity:.7}.label{font:italic 19px Georgia,serif;fill:#282e2a}.alpha-label{fill:#20563f}.beta-label{fill:#397d77}.arrow{fill:#2b6555}.arrow-alpha{fill:#20563f}.arrow-beta{fill:#397d77}</style>
<defs><linearGradient id="surface-fill" x2="0" y2="1"><stop stop-color="#b4cdbb"/><stop offset="1" stop-color="#edf4ee"/></linearGradient><marker id="arrow" viewBox="0 0 8 8" refX="6" refY="4" markerWidth="5" markerHeight="5" orient="auto"><path class="arrow" d="M 1 1 L 7 4 L 1 7 L 3 4 Z"/></marker><marker id="arrow-alpha" viewBox="0 0 8 8" refX="6" refY="4" markerWidth="5" markerHeight="5" orient="auto"><path class="arrow-alpha" d="M 1 1 L 7 4 L 1 7 L 3 4 Z"/></marker><marker id="arrow-beta" viewBox="0 0 8 8" refX="6" refY="4" markerWidth="5" markerHeight="5" orient="auto"><path class="arrow-beta" d="M 1 1 L 7 4 L 1 7 L 3 4 Z"/></marker></defs>
<rect width="1380" height="410" fill="#ffffff"/>
<path d="M 90 200 L 168.33333333333334 200 C 193.33333333333334 200 193.33333333333334 140 193.33333333333334 85 L 253.33333333333334 85 C 253.33333333333334 140 253.33333333333334 200 278.33333333333337 200 L 301.6666666666667 200 C 326.6666666666667 200 326.6666666666667 140 326.6666666666667 85 L 386.6666666666667 85 C 386.6666666666667 140 386.6666666666667 200 411.6666666666667 200 L 435 200 C 460 200 460 140 460 85 L 520 85 C 520 140 520 200 545 200 L 568.3333333333334 200 C 593.3333333333334 200 593.3333333333334 140 593.3333333333334 85 L 653.3333333333334 85 C 653.3333333333334 140 653.3333333333334 200 678.3333333333334 200 L 701.6666666666666 200 C 726.6666666666666 200 726.6666666666666 140 726.6666666666666 85 L 786.6666666666666 85 C 786.6666666666666 140 786.6666666666666 200 811.6666666666666 200 L 835 200 C 860 200 860 140 860 85 L 920 85 C 920 140 920 200 945 200 L 968.3333333333334 200 C 993.3333333333334 200 993.3333333333334 140 993.3333333333334 85 L 1053.3333333333335 85 C 1053.3333333333335 140 1053.3333333333335 200 1078.3333333333335 200 L 1101.6666666666667 200 C 1126.6666666666667 200 1126.6666666666667 140 1126.6666666666667 85 L 1186.6666666666667 85 C 1186.6666666666667 140 1186.6666666666667 200 1211.6666666666667 200 L 1290 200 C 1317.614 200 1340 217.909 1340 240 C 1340 262.091 1317.614 280 1290 280 L 1105 280 C 1060 280 1054 320 1053 354 Q 1050 360 1047 354 C 1046 320 1040 280 995 280 L 865 280 C 820 280 814 320 813 354 Q 810 360 807 354 C 806 320 800 280 755 280 L 625 280 C 580 280 574 320 573 354 Q 570 360 567 354 C 566 320 560 280 515 280 L 385 280 C 340 280 334 320 333 354 Q 330 360 327 354 C 326 320 320 280 275 280 L 90 280 C 62.386 280 40 262.091 40 240 C 40 217.909 62.386 200 90 200 Z" class="body"/>
<g data-boundary="1"><ellipse class="opening" cx="223.33333333333334" cy="85" rx="30" ry="10"/><ellipse class="curve hidden" cx="223.33333333333334" cy="115" rx="33" ry="11"/><path class="curve" d="M 190.33333333333334 115 A 33 11 0 0 0 256.33333333333337 115"/><path class="curve" d="M 228.33333333333334 126 L 218.33333333333334 126" marker-end="url(#arrow)"/>
<text x="201.33333333333334" y="65" class="label ">∂<tspan baseline-shift="sub" font-size="12">1</tspan></text>
<text x="215.33333333333334" y="150" class="label ">c<tspan baseline-shift="sub" font-size="12">1</tspan></text>
</g>
<g data-boundary="2"><ellipse class="opening" cx="356.6666666666667" cy="85" rx="30" ry="10"/><ellipse class="curve hidden" cx="356.6666666666667" cy="115" rx="33" ry="11"/><path class="curve" d="M 323.6666666666667 115 A 33 11 0 0 0 389.6666666666667 115"/><path class="curve" d="M 361.6666666666667 126 L 351.6666666666667 126" marker-end="url(#arrow)"/>
<text x="334.6666666666667" y="65" class="label ">∂<tspan baseline-shift="sub" font-size="12">2</tspan></text>
<text x="348.6666666666667" y="150" class="label ">c<tspan baseline-shift="sub" font-size="12">2</tspan></text>
</g>
<g data-boundary="3"><ellipse class="opening" cx="490" cy="85" rx="30" ry="10"/><ellipse class="curve hidden" cx="490" cy="115" rx="33" ry="11"/><path class="curve" d="M 457 115 A 33 11 0 0 0 523 115"/><path class="curve" d="M 495 126 L 485 126" marker-end="url(#arrow)"/>
<text x="468" y="65" class="label ">∂<tspan baseline-shift="sub" font-size="12">3</tspan></text>
<text x="482" y="150" class="label ">c<tspan baseline-shift="sub" font-size="12">3</tspan></text>
</g>
<g data-boundary="4"><ellipse class="opening" cx="623.3333333333334" cy="85" rx="30" ry="10"/><ellipse class="curve hidden" cx="623.3333333333334" cy="115" rx="33" ry="11"/><path class="curve" d="M 590.3333333333334 115 A 33 11 0 0 0 656.3333333333334 115"/><path class="curve" d="M 628.3333333333334 126 L 618.3333333333334 126" marker-end="url(#arrow)"/>
<text x="601.3333333333334" y="65" class="label ">∂<tspan baseline-shift="sub" font-size="12">4</tspan></text>
<text x="615.3333333333334" y="150" class="label ">c<tspan baseline-shift="sub" font-size="12">4</tspan></text>
</g>
<g data-boundary="5"><ellipse class="opening" cx="756.6666666666666" cy="85" rx="30" ry="10"/><ellipse class="curve hidden" cx="756.6666666666666" cy="115" rx="33" ry="11"/><path class="curve" d="M 723.6666666666666 115 A 33 11 0 0 0 789.6666666666666 115"/><path class="curve" d="M 761.6666666666666 126 L 751.6666666666666 126" marker-end="url(#arrow)"/>
<text x="734.6666666666666" y="65" class="label ">∂<tspan baseline-shift="sub" font-size="12">5</tspan></text>
<text x="748.6666666666666" y="150" class="label ">c<tspan baseline-shift="sub" font-size="12">5</tspan></text>
</g>
<g data-boundary="6"><ellipse class="opening" cx="890" cy="85" rx="30" ry="10"/><ellipse class="curve hidden" cx="890" cy="115" rx="33" ry="11"/><path class="curve" d="M 857 115 A 33 11 0 0 0 923 115"/><path class="curve" d="M 895 126 L 885 126" marker-end="url(#arrow)"/>
<text x="868" y="65" class="label ">∂<tspan baseline-shift="sub" font-size="12">6</tspan></text>
<text x="882" y="150" class="label ">c<tspan baseline-shift="sub" font-size="12">6</tspan></text>
</g>
<g data-boundary="7"><ellipse class="opening" cx="1023.3333333333334" cy="85" rx="30" ry="10"/><ellipse class="curve hidden" cx="1023.3333333333334" cy="115" rx="33" ry="11"/><path class="curve" d="M 990.3333333333334 115 A 33 11 0 0 0 1056.3333333333335 115"/><path class="curve" d="M 1028.3333333333335 126 L 1018.3333333333334 126" marker-end="url(#arrow)"/>
<text x="1001.3333333333334" y="65" class="label ">∂<tspan baseline-shift="sub" font-size="12">7</tspan></text>
<text x="1015.3333333333334" y="150" class="label ">c<tspan baseline-shift="sub" font-size="12">7</tspan></text>
</g>
<g data-boundary="8"><ellipse class="opening" cx="1156.6666666666667" cy="85" rx="30" ry="10"/><ellipse class="curve hidden" cx="1156.6666666666667" cy="115" rx="33" ry="11"/><path class="curve" d="M 1123.6666666666667 115 A 33 11 0 0 0 1189.6666666666667 115"/><path class="curve" d="M 1161.6666666666667 126 L 1151.6666666666667 126" marker-end="url(#arrow)"/>
<text x="1134.6666666666667" y="65" class="label ">∂<tspan baseline-shift="sub" font-size="12">8</tspan></text>
<text x="1148.6666666666667" y="150" class="label ">c<tspan baseline-shift="sub" font-size="12">8</tspan></text>
</g>
<g data-puncture="1"><circle class="opening" cx="330" cy="355" r="3"/><ellipse class="curve hidden" cx="330" cy="307" rx="15" ry="6"/><path class="curve" d="M 315 307 A 15 6 0 0 0 345 307"/><path class="curve" d="M 334 313 L 326 313" marker-end="url(#arrow)"/>
<text x="350" y="316" class="label ">c<tspan baseline-shift="sub" font-size="12">9</tspan></text>
</g>
<g data-puncture="2"><circle class="opening" cx="570" cy="355" r="3"/><ellipse class="curve hidden" cx="570" cy="307" rx="15" ry="6"/><path class="curve" d="M 555 307 A 15 6 0 0 0 585 307"/><path class="curve" d="M 574 313 L 566 313" marker-end="url(#arrow)"/>
<text x="590" y="316" class="label ">c<tspan baseline-shift="sub" font-size="12">10</tspan></text>
</g>
<g data-puncture="3"><circle class="opening" cx="810" cy="355" r="3"/><ellipse class="curve hidden" cx="810" cy="307" rx="15" ry="6"/><path class="curve" d="M 795 307 A 15 6 0 0 0 825 307"/><path class="curve" d="M 814 313 L 806 313" marker-end="url(#arrow)"/>
<text x="830" y="316" class="label ">c<tspan baseline-shift="sub" font-size="12">11</tspan></text>
</g>
<g data-puncture="4"><circle class="opening" cx="1050" cy="355" r="3"/><ellipse class="curve hidden" cx="1050" cy="307" rx="15" ry="6"/><path class="curve" d="M 1035 307 A 15 6 0 0 0 1065 307"/><path class="curve" d="M 1054 313 L 1046 313" marker-end="url(#arrow)"/>
<text x="1070" y="316" class="label ">c<tspan baseline-shift="sub" font-size="12">12</tspan></text>
</g>
</svg>