<svg xmlns="http://www.w3.org/2000/svg" width="2640" height="410" viewBox="0 0 2640 410" role="img" aria-labelledby="title desc">
<title id="title">Surface of genus 8, with 0 boundary components and 4 punctures</title>
<desc id="desc">APS standard surface layout. 8 handles on the left with alpha and beta curves; 0 boundary circles at the upper right and 4 punctures below. Marked points are omitted. Dashed segments lie on the hidden sheet. The alpha and beta curves form a symplectic basis after capping boundaries and filling punctures.</desc>
<style>.body{fill:url(#surface-fill);stroke:#9bc7ac;stroke-width:1.3}.opening{fill:#1d2521;stroke:#9bc7ac;stroke-width:1.3}.curve{fill:none;stroke:#9bc7ac;stroke-width:1.6}.alpha{stroke:#d0ead8}.beta{stroke:#80cdbd}.hidden{stroke-dasharray:4 4;opacity:.7}.label{font:italic 19px Georgia,serif;fill:#e4e9e1}.alpha-label{fill:#d0ead8}.beta-label{fill:#80cdbd}.arrow{fill:#9bc7ac}.arrow-alpha{fill:#d0ead8}.arrow-beta{fill:#80cdbd}</style>
<defs><linearGradient id="surface-fill" x2="0" y2="1"><stop stop-color="#456951"/><stop offset="1" stop-color="#283d30"/></linearGradient><marker id="arrow" viewBox="0 0 8 8" refX="6" refY="4" markerWidth="5" markerHeight="5" orient="auto"><path class="arrow" d="M 1 1 L 7 4 L 1 7 L 3 4 Z"/></marker><marker id="arrow-alpha" viewBox="0 0 8 8" refX="6" refY="4" markerWidth="5" markerHeight="5" orient="auto"><path class="arrow-alpha" d="M 1 1 L 7 4 L 1 7 L 3 4 Z"/></marker><marker id="arrow-beta" viewBox="0 0 8 8" refX="6" refY="4" markerWidth="5" markerHeight="5" orient="auto"><path class="arrow-beta" d="M 1 1 L 7 4 L 1 7 L 3 4 Z"/></marker></defs>
<rect width="2640" height="410" fill="#1d2521"/>
<path d="M 160 155 C 210 155 245 200 280 200 C 315 200 350 155 400 155 C 450 155 485 200 520 200 C 555 200 590 155 640 155 C 690 155 725 200 760 200 C 795 200 830 155 880 155 C 930 155 965 200 1000 200 C 1035 200 1070 155 1120 155 C 1170 155 1205 200 1240 200 C 1275 200 1310 155 1360 155 C 1410 155 1445 200 1480 200 C 1515 200 1550 155 1600 155 C 1650 155 1685 200 1720 200 C 1755 200 1790 155 1840 155 C 1890 155 1925 200 1960 200 L 2550 200 C 2577.614 200 2600 217.909 2600 240 C 2600 262.091 2577.614 280 2550 280 L 2487 280 C 2442 280 2436 320 2435 354 Q 2432 360 2429 354 C 2428 320 2422 280 2377 280 L 2369 280 C 2324 280 2318 320 2317 354 Q 2314 360 2311 354 C 2310 320 2304 280 2259 280 L 2251 280 C 2206 280 2200 320 2199 354 Q 2196 360 2193 354 C 2192 320 2186 280 2141 280 L 2133 280 C 2088 280 2082 320 2081 354 Q 2078 360 2075 354 C 2074 320 2068 280 2023 280 L 1960 280 C 1925 280 1885 325 1840 325 C 1795 325 1755 280 1720 280 C 1685 280 1645 325 1600 325 C 1555 325 1515 280 1480 280 C 1445 280 1405 325 1360 325 C 1315 325 1275 280 1240 280 C 1205 280 1165 325 1120 325 C 1075 325 1035 280 1000 280 C 965 280 925 325 880 325 C 835 325 795 280 760 280 C 725 280 685 325 640 325 C 595 325 555 280 520 280 C 485 280 445 325 400 325 C 355 325 315 280 280 280 C 245 280 205 325 160 325 C 93.726 325 40 286.944 40 240 C 40 193.056 93.726 155 160 155 Z" class="body"/>
<g data-handle="1"><path class="opening" d="M 121 239 Q 160 218 199 239 Q 160 256 121 239 Z"/>
<ellipse data-curve="alpha" class="curve alpha" cx="160" cy="239" rx="74" ry="38"/>
<path data-curve="beta" class="curve beta" d="M 162 248 C 180 269 180 305 162 325"/><path class="curve beta hidden" d="M 162 325 C 142 302 142 268 162 248"/>
<path class="curve alpha" d="M 232 230 Q 236 239 231 249" marker-end="url(#arrow-alpha)"/><path class="curve beta" d="M 175 283 L 175 297" marker-end="url(#arrow-beta)"/>
<text x="242" y="244" class="label alpha-label">α<tspan baseline-shift="sub" font-size="12">1</tspan></text>
<text x="189" y="310" class="label beta-label">β<tspan baseline-shift="sub" font-size="12">1</tspan></text>
</g>
<g data-handle="2"><path class="opening" d="M 361 239 Q 400 218 439 239 Q 400 256 361 239 Z"/>
<ellipse data-curve="alpha" class="curve alpha" cx="400" cy="239" rx="74" ry="38"/>
<path data-curve="beta" class="curve beta" d="M 402 248 C 420 269 420 305 402 325"/><path class="curve beta hidden" d="M 402 325 C 382 302 382 268 402 248"/>
<path class="curve alpha" d="M 472 230 Q 476 239 471 249" marker-end="url(#arrow-alpha)"/><path class="curve beta" d="M 415 283 L 415 297" marker-end="url(#arrow-beta)"/>
<text x="482" y="244" class="label alpha-label">α<tspan baseline-shift="sub" font-size="12">2</tspan></text>
<text x="429" y="310" class="label beta-label">β<tspan baseline-shift="sub" font-size="12">2</tspan></text>
</g>
<g data-handle="3"><path class="opening" d="M 601 239 Q 640 218 679 239 Q 640 256 601 239 Z"/>
<ellipse data-curve="alpha" class="curve alpha" cx="640" cy="239" rx="74" ry="38"/>
<path data-curve="beta" class="curve beta" d="M 642 248 C 660 269 660 305 642 325"/><path class="curve beta hidden" d="M 642 325 C 622 302 622 268 642 248"/>
<path class="curve alpha" d="M 712 230 Q 716 239 711 249" marker-end="url(#arrow-alpha)"/><path class="curve beta" d="M 655 283 L 655 297" marker-end="url(#arrow-beta)"/>
<text x="722" y="244" class="label alpha-label">α<tspan baseline-shift="sub" font-size="12">3</tspan></text>
<text x="669" y="310" class="label beta-label">β<tspan baseline-shift="sub" font-size="12">3</tspan></text>
</g>
<g data-handle="4"><path class="opening" d="M 841 239 Q 880 218 919 239 Q 880 256 841 239 Z"/>
<ellipse data-curve="alpha" class="curve alpha" cx="880" cy="239" rx="74" ry="38"/>
<path data-curve="beta" class="curve beta" d="M 882 248 C 900 269 900 305 882 325"/><path class="curve beta hidden" d="M 882 325 C 862 302 862 268 882 248"/>
<path class="curve alpha" d="M 952 230 Q 956 239 951 249" marker-end="url(#arrow-alpha)"/><path class="curve beta" d="M 895 283 L 895 297" marker-end="url(#arrow-beta)"/>
<text x="962" y="244" class="label alpha-label">α<tspan baseline-shift="sub" font-size="12">4</tspan></text>
<text x="909" y="310" class="label beta-label">β<tspan baseline-shift="sub" font-size="12">4</tspan></text>
</g>
<g data-handle="5"><path class="opening" d="M 1081 239 Q 1120 218 1159 239 Q 1120 256 1081 239 Z"/>
<ellipse data-curve="alpha" class="curve alpha" cx="1120" cy="239" rx="74" ry="38"/>
<path data-curve="beta" class="curve beta" d="M 1122 248 C 1140 269 1140 305 1122 325"/><path class="curve beta hidden" d="M 1122 325 C 1102 302 1102 268 1122 248"/>
<path class="curve alpha" d="M 1192 230 Q 1196 239 1191 249" marker-end="url(#arrow-alpha)"/><path class="curve beta" d="M 1135 283 L 1135 297" marker-end="url(#arrow-beta)"/>
<text x="1202" y="244" class="label alpha-label">α<tspan baseline-shift="sub" font-size="12">5</tspan></text>
<text x="1149" y="310" class="label beta-label">β<tspan baseline-shift="sub" font-size="12">5</tspan></text>
</g>
<g data-handle="6"><path class="opening" d="M 1321 239 Q 1360 218 1399 239 Q 1360 256 1321 239 Z"/>
<ellipse data-curve="alpha" class="curve alpha" cx="1360" cy="239" rx="74" ry="38"/>
<path data-curve="beta" class="curve beta" d="M 1362 248 C 1380 269 1380 305 1362 325"/><path class="curve beta hidden" d="M 1362 325 C 1342 302 1342 268 1362 248"/>
<path class="curve alpha" d="M 1432 230 Q 1436 239 1431 249" marker-end="url(#arrow-alpha)"/><path class="curve beta" d="M 1375 283 L 1375 297" marker-end="url(#arrow-beta)"/>
<text x="1442" y="244" class="label alpha-label">α<tspan baseline-shift="sub" font-size="12">6</tspan></text>
<text x="1389" y="310" class="label beta-label">β<tspan baseline-shift="sub" font-size="12">6</tspan></text>
</g>
<g data-handle="7"><path class="opening" d="M 1561 239 Q 1600 218 1639 239 Q 1600 256 1561 239 Z"/>
<ellipse data-curve="alpha" class="curve alpha" cx="1600" cy="239" rx="74" ry="38"/>
<path data-curve="beta" class="curve beta" d="M 1602 248 C 1620 269 1620 305 1602 325"/><path class="curve beta hidden" d="M 1602 325 C 1582 302 1582 268 1602 248"/>
<path class="curve alpha" d="M 1672 230 Q 1676 239 1671 249" marker-end="url(#arrow-alpha)"/><path class="curve beta" d="M 1615 283 L 1615 297" marker-end="url(#arrow-beta)"/>
<text x="1682" y="244" class="label alpha-label">α<tspan baseline-shift="sub" font-size="12">7</tspan></text>
<text x="1629" y="310" class="label beta-label">β<tspan baseline-shift="sub" font-size="12">7</tspan></text>
</g>
<g data-handle="8"><path class="opening" d="M 1801 239 Q 1840 218 1879 239 Q 1840 256 1801 239 Z"/>
<ellipse data-curve="alpha" class="curve alpha" cx="1840" cy="239" rx="74" ry="38"/>
<path data-curve="beta" class="curve beta" d="M 1842 248 C 1860 269 1860 305 1842 325"/><path class="curve beta hidden" d="M 1842 325 C 1822 302 1822 268 1842 248"/>
<path class="curve alpha" d="M 1912 230 Q 1916 239 1911 249" marker-end="url(#arrow-alpha)"/><path class="curve beta" d="M 1855 283 L 1855 297" marker-end="url(#arrow-beta)"/>
<text x="1922" y="244" class="label alpha-label">α<tspan baseline-shift="sub" font-size="12">8</tspan></text>
<text x="1869" y="310" class="label beta-label">β<tspan baseline-shift="sub" font-size="12">8</tspan></text>
</g>
<g data-puncture="1"><circle class="opening" cx="2078" cy="355" r="3"/><ellipse class="curve hidden" cx="2078" cy="307" rx="15" ry="6"/><path class="curve" d="M 2063 307 A 15 6 0 0 0 2093 307"/><path class="curve" d="M 2082 313 L 2074 313" marker-end="url(#arrow)"/>
<text x="2098" y="316" class="label ">c<tspan baseline-shift="sub" font-size="12">1</tspan></text>
</g>
<g data-puncture="2"><circle class="opening" cx="2196" cy="355" r="3"/><ellipse class="curve hidden" cx="2196" cy="307" rx="15" ry="6"/><path class="curve" d="M 2181 307 A 15 6 0 0 0 2211 307"/><path class="curve" d="M 2200 313 L 2192 313" marker-end="url(#arrow)"/>
<text x="2216" y="316" class="label ">c<tspan baseline-shift="sub" font-size="12">2</tspan></text>
</g>
<g data-puncture="3"><circle class="opening" cx="2314" cy="355" r="3"/><ellipse class="curve hidden" cx="2314" cy="307" rx="15" ry="6"/><path class="curve" d="M 2299 307 A 15 6 0 0 0 2329 307"/><path class="curve" d="M 2318 313 L 2310 313" marker-end="url(#arrow)"/>
<text x="2334" y="316" class="label ">c<tspan baseline-shift="sub" font-size="12">3</tspan></text>
</g>
<g data-puncture="4"><circle class="opening" cx="2432" cy="355" r="3"/><ellipse class="curve hidden" cx="2432" cy="307" rx="15" ry="6"/><path class="curve" d="M 2417 307 A 15 6 0 0 0 2447 307"/><path class="curve" d="M 2436 313 L 2428 313" marker-end="url(#arrow)"/>
<text x="2452" y="316" class="label ">c<tspan baseline-shift="sub" font-size="12">4</tspan></text>
</g>
</svg>